<?xml version="1.0" encoding="UTF-8" standalone="no"?>
<svg
   version="1.0"
   width="50pt"
   height="29pt"
   viewBox="0 0 50 29"
   preserveAspectRatio="xMidYMid meet"
   id="svg10"
   sodipodi:docname="2 apples.svg"
   inkscape:version="1.1.1 (3bf5ae0d25, 2021-09-20)"
   xmlns:inkscape="http://www.inkscape.org/namespaces/inkscape"
   xmlns:sodipodi="http://sodipodi.sourceforge.net/DTD/sodipodi-0.dtd"
   xmlns:xlink="http://www.w3.org/1999/xlink"
   xmlns="http://www.w3.org/2000/svg"
   xmlns:svg="http://www.w3.org/2000/svg">
  <defs
     id="defs14">
    <linearGradient
       inkscape:collect="always"
       id="linearGradient1893">
      <stop
         style="stop-color:#5ce000;stop-opacity:1;"
         offset="0"
         id="stop1889" />
      <stop
         style="stop-color:#5ce000;stop-opacity:0;"
         offset="1"
         id="stop1891" />
    </linearGradient>
    <linearGradient
       inkscape:collect="always"
       id="linearGradient1791">
      <stop
         style="stop-color:#5ce000;stop-opacity:1;"
         offset="0"
         id="stop1787" />
      <stop
         style="stop-color:#5ce000;stop-opacity:0;"
         offset="1"
         id="stop1789" />
    </linearGradient>
    <linearGradient
       inkscape:collect="always"
       id="linearGradient1347">
      <stop
         style="stop-color:#5ce000;stop-opacity:1;"
         offset="0"
         id="stop1343" />
      <stop
         style="stop-color:#5ce000;stop-opacity:0;"
         offset="1"
         id="stop1345" />
    </linearGradient>
    <linearGradient
       inkscape:collect="always"
       xlink:href="#linearGradient1347"
       id="linearGradient1349"
       x1="53.138767"
       y1="6.3791161"
       x2="60.942177"
       y2="1.1623625"
       gradientUnits="userSpaceOnUse" />
    <linearGradient
       inkscape:collect="always"
       xlink:href="#linearGradient1347"
       id="linearGradient1783"
       gradientUnits="userSpaceOnUse"
       x1="53.138767"
       y1="6.3791161"
       x2="60.942177"
       y2="1.1623625"
       gradientTransform="matrix(0.68413299,0,0,0.68413298,-70.013429,28.971087)" />
    <linearGradient
       inkscape:collect="always"
       xlink:href="#linearGradient1791"
       id="linearGradient1793"
       x1="-51.870186"
       y1="-8.5280828"
       x2="-50.583084"
       y2="-8.2927513"
       gradientUnits="userSpaceOnUse" />
    <linearGradient
       inkscape:collect="always"
       xlink:href="#linearGradient1893"
       id="linearGradient1895"
       x1="4.2570982"
       y1="59.453373"
       x2="5.3926454"
       y2="59.420376"
       gradientUnits="userSpaceOnUse"
       gradientTransform="matrix(1.1001772,0,0,1.1001772,-0.51997719,-5.5249162)" />
    <filter
       height="1.0003422"
       width="1.0001935"
       y="-0.00017108012"
       x="-9.6758984e-05"
       inkscape:menu-tooltip="Gives a turbulent pointillist HSL sensitive transparency"
       inkscape:menu="Scatter"
       inkscape:label="Pointillism"
       style="color-interpolation-filters:sRGB"
       id="filter15295">
      <feTurbulence
         type="fractalNoise"
         numOctaves="3"
         baseFrequency="0.25 0.4"
         seed="5"
         id="feTurbulence15277" />
      <feColorMatrix
         result="result5"
         values="1 0 0 0 0 0 1 0 0 0 0 0 1 0 0 0 0 0 1 0 "
         id="feColorMatrix15279" />
      <feComposite
         in="SourceGraphic"
         operator="in"
         in2="result5"
         id="feComposite15281" />
      <feMorphology
         operator="dilate"
         radius="1.5"
         result="result3"
         id="feMorphology15283" />
      <feTurbulence
         numOctaves="5"
         baseFrequency="0.03"
         type="fractalNoise"
         seed="7"
         id="feTurbulence15285" />
      <feGaussianBlur
         stdDeviation="0.5"
         result="result91"
         id="feGaussianBlur15287" />
      <feDisplacementMap
         in="result3"
         xChannelSelector="R"
         yChannelSelector="G"
         scale="27"
         result="result4"
         in2="result91"
         id="feDisplacementMap15289" />
      <feComposite
         in="result4"
         k3="0.8"
         k1="1.3"
         result="result2"
         operator="arithmetic"
         in2="result4"
         id="feComposite15291"
         k2="0"
         k4="0" />
      <feBlend
         in2="result2"
         mode="screen"
         in="result2"
         id="feBlend15293"
         result="fbSourceGraphic" />
      <feColorMatrix
         result="fbSourceGraphicAlpha"
         in="fbSourceGraphic"
         values="0 0 0 -1 0 0 0 0 -1 0 0 0 0 -1 0 0 0 0 1 0"
         id="feColorMatrix15640" />
      <feTurbulence
         id="feTurbulence15642"
         seed="50"
         type="fractalNoise"
         baseFrequency="1"
         numOctaves="3"
         result="result1" />
      <feColorMatrix
         id="feColorMatrix15644"
         type="luminanceToAlpha"
         in="fbSourceGraphic"
         result="result0" />
      <feColorMatrix
         id="feColorMatrix15646"
         result="result2"
         values="1 0 0 0 0 0 1 0 0 0 0 0 1 0 0 0 0 0 0.5 0 " />
      <feComposite
         in2="result2"
         id="feComposite15648"
         result="result3"
         operator="over"
         in="result1" />
      <feColorMatrix
         id="feColorMatrix15650"
         result="result91"
         values="1 0 0 0 0 0 1 0 0 0 0 0 1 0 0 0 0 0 5 -3.2" />
      <feComposite
         in2="result91"
         id="feComposite15652"
         operator="arithmetic"
         k1="1.5"
         result="result93"
         k2="0"
         k3="0"
         k4="0" />
      <feComposite
         in2="result93"
         id="feComposite15654"
         in="fbSourceGraphic"
         operator="out"
         result="result4" />
      <feComposite
         in2="result4"
         id="feComposite15656"
         operator="arithmetic"
         k2="0.5"
         k1="1"
         result="result94"
         k3="0"
         k4="0" />
      <feDisplacementMap
         in2="result1"
         id="feDisplacementMap15658"
         scale="15"
         xChannelSelector="R"
         yChannelSelector="A"
         result="result92" />
    </filter>
  </defs>
  <sodipodi:namedview
     id="namedview12"
     pagecolor="#505050"
     bordercolor="#eeeeee"
     borderopacity="1"
     inkscape:pageshadow="0"
     inkscape:pageopacity="0"
     inkscape:pagecheckerboard="0"
     inkscape:document-units="pt"
     showgrid="false"
     inkscape:zoom="5.4226251"
     inkscape:cx="32.08778"
     inkscape:cy="39.556487"
     inkscape:window-width="1440"
     inkscape:window-height="847"
     inkscape:window-x="-8"
     inkscape:window-y="-8"
     inkscape:window-maximized="1"
     inkscape:current-layer="svg10"
     inkscape:snap-others="true"
     inkscape:object-nodes="false"
     width="50pt" />
  <metadata
     id="metadata2">
Created by potrace 1.15, written by Peter Selinger 2001-2017
</metadata>
  <g
     id="g16393"
     transform="matrix(0.99980764,0,0,0.99980764,-15.60351,-13.735496)">
    <g
       id="g16322"
       style="mix-blend-mode:normal">
      <g
         transform="matrix(0.00403162,0,0,-0.00403162,14.981958,43.36754)"
         fill="#000000"
         stroke="none"
         id="g8"
         style="fill:#005800"
         sodipodi:insensitive="true">
        <path
           d="m 8015,7248 c -27,-5 -65,-12 -84,-14 -18,-3 -45,-17 -59,-31 -13,-14 -46,-38 -71,-54 -27,-16 -56,-45 -69,-68 l -22,-40 43,-53 c 51,-63 137,-191 137,-205 0,-5 14,-25 31,-44 59,-64 147,-209 167,-277 82,-269 102,-347 93,-350 -6,-2 -70,-44 -143,-93 -150,-100 -297,-232 -426,-383 -180,-211 -261,-292 -413,-418 -115,-94 -181,-158 -250,-241 -137,-164 -242,-315 -294,-425 -25,-53 -50,-104 -55,-113 -4,-9 -27,-76 -50,-150 -73,-237 -110,-509 -110,-809 0,-223 8,-307 46,-503 33,-175 40,-198 185,-577 104,-270 212,-483 360,-703 76,-114 281,-366 399,-490 214,-226 548,-474 845,-628 380,-196 625,-278 950,-315 224,-25 831,-26 1010,-1 197,28 413,81 640,157 323,109 586,252 780,424 115,102 315,316 394,421 37,50 89,119 115,155 78,105 228,443 279,630 88,318 140,972 103,1295 -17,148 -44,310 -70,410 -8,33 -27,112 -42,175 -77,333 -206,641 -396,949 -148,240 -142,232 -371,513 -82,102 -328,366 -399,429 -35,30 -99,79 -143,109 -44,29 -126,86 -183,127 -288,207 -494,298 -877,387 -242,56 -347,69 -560,68 -432,-1 -830,-93 -1063,-244 -34,-22 -64,-39 -66,-37 -2,2 -14,39 -26,83 -12,43 -44,137 -72,210 -68,179 -129,366 -122,377 3,5 10,7 15,4 17,-11 9,14 -9,27 -23,17 -52,63 -52,82 0,9 -7,32 -16,53 -41,95 -45,110 -28,117 10,4 14,17 12,41 -1,19 -5,34 -8,34 -3,-1 -27,-6 -55,-11 z"
           id="path4"
           style="fill:#005800" />
        <path
           d="m 3420,6728 c -13,-23 -35,-41 -63,-53 -23,-9 -50,-21 -59,-26 -10,-5 -28,-9 -40,-9 -29,0 -84,-33 -97,-59 -12,-21 -9,-30 34,-111 13,-25 24,-58 24,-73 1,-15 8,-30 16,-34 9,-3 22,-17 29,-32 13,-25 56,-171 56,-190 0,-5 -71,-11 -157,-14 -437,-15 -728,-50 -948,-114 -175,-50 -529,-204 -649,-281 C 1384,5615 1204,5474 1060,5335 735,5024 491,4607 310,4055 103,3424 105,2862 315,2235 c 64,-193 239,-522 360,-680 133,-173 345,-392 586,-604 377,-332 726,-509 1189,-601 202,-40 308,-50 547,-50 463,0 898,64 1278,187 348,113 806,412 1131,739 280,280 506,604 651,929 85,191 95,219 133,367 72,277 92,429 93,698 1,225 0,242 -31,410 -38,204 -98,441 -141,557 -43,117 -109,271 -137,318 -13,23 -43,86 -67,140 -90,204 -203,423 -271,525 -124,187 -413,453 -621,572 -38,22 -110,64 -160,93 -117,68 -257,124 -436,175 -238,68 -302,79 -551,97 l -238,17 -10,31 c -12,38 -15,94 -7,121 5,14 1,29 -12,45 -16,21 -19,48 -24,222 -2,109 -6,200 -8,202 -2,2 -32,7 -66,10 l -62,7 z"
           id="path6"
           style="fill:#005800" />
      </g>
      <g
         id="g16308">
        <g
           id="g8559">
          <ellipse
             style="opacity:0.36;fill:url(#linearGradient1783);fill-opacity:1;fill-rule:evenodd;stroke-width:0;stroke-linejoin:round;paint-order:stroke fill markers"
             id="ellipse1781"
             cx="-29.923563"
             cy="31.825264"
             rx="3.9759705"
             ry="2.3578396"
             transform="matrix(-0.94714447,0.32080733,-0.16510064,0.98627673,0,0)" />
          <ellipse
             style="opacity:0.36;fill:url(#linearGradient1793);fill-opacity:1;fill-rule:evenodd;stroke-width:0;stroke-linejoin:round;paint-order:stroke fill markers"
             id="ellipse1785"
             cx="-50.950474"
             cy="-8.5280828"
             rx="0.9197101"
             ry="4.2028337"
             transform="matrix(-0.53475022,-0.84501018,-0.83206828,0.55467322,0,0)" />
          <path
             id="path3803"
             style="opacity:1;fill:#502d16;fill-rule:evenodd;stroke-width:0;stroke-linejoin:round;paint-order:stroke fill markers"
             d="m 28.355342,16.520294 c 0.352222,-0.0825 0.49942,-0.414568 0.49942,-0.414568 0,0 0.359526,0.03022 0.512706,0.07137 0.02623,0.329671 0.03074,1.217377 0.06895,1.494672 0.03796,0.275477 0.124983,0.264909 0.121687,0.331585 -0.01019,0.206089 -0.09381,0.279026 0.05863,0.674547 l -1.255473,-0.06159 c -0.04381,-0.188614 -0.1452,-0.753656 -0.375101,-0.945911 -0.08928,-0.344599 -0.08759,-0.312896 -0.283299,-0.722 5.84e-4,-0.350511 0.521222,-0.351641 0.652478,-0.428103 z"
             sodipodi:nodetypes="cccsscccccc" />
        </g>
        <g
           id="g14885">
          <ellipse
             style="opacity:0.36;fill:url(#linearGradient1349);fill-opacity:1;fill-rule:evenodd;stroke-width:0;stroke-linejoin:round;paint-order:stroke fill markers"
             id="path164"
             cx="58.599525"
             cy="4.1719613"
             rx="5.8116927"
             ry="3.4464638"
             transform="matrix(0.94714447,0.32080733,0.16510064,0.98627673,0,0)" />
          <ellipse
             style="opacity:0.36;fill:url(#linearGradient1895);fill-opacity:1;fill-rule:evenodd;stroke-width:0;stroke-linejoin:round;paint-order:stroke fill markers"
             id="path366"
             cx="5.1754293"
             cy="59.884331"
             rx="1.011844"
             ry="4.6238618"
             transform="matrix(0.67318978,-0.73946976,0.7232689,0.69056651,0,0)" />
          <path
             id="rect9059"
             style="opacity:1;fill:#241f1c;fill-rule:evenodd;stroke-width:0;stroke-linejoin:round;paint-order:stroke fill markers"
             d="m 46.208077,14.734582 0.194978,-0.179711 0.510241,-0.352817 0.636535,-0.105866 0.0074,0.282552 -0.09921,0.04719 c 0.186504,0.660388 0.341815,0.797185 0.519847,1.118742 -0.06501,-0.0012 -0.144074,-0.0476 -0.114194,0.06901 l 0.893619,2.641273 -0.790639,0.46546 c 0,0 -0.257106,-1.693636 -1.176512,-2.694699 0,0 -0.115017,-0.308828 -0.728356,-1.039037 0.06421,-0.143339 0.09162,-0.173916 0.146364,-0.252097 z"
             sodipodi:nodetypes="ccccccccccsccc" />
        </g>
      </g>
    </g>
    <g
       transform="matrix(0.00403162,0,0,-0.00403162,14.981958,43.36754)"
       fill="#000000"
       stroke="none"
       id="g14891"
       style="opacity:0.357798;fill:#00002b;filter:url(#filter15295)"
       inkscape:label="Efeito">
      <path
         d="m 8015,7248 c -27,-5 -65,-12 -84,-14 -18,-3 -45,-17 -59,-31 -13,-14 -46,-38 -71,-54 -27,-16 -56,-45 -69,-68 l -22,-40 43,-53 c 51,-63 137,-191 137,-205 0,-5 14,-25 31,-44 59,-64 147,-209 167,-277 82,-269 102,-347 93,-350 -6,-2 -70,-44 -143,-93 -150,-100 -297,-232 -426,-383 -180,-211 -261,-292 -413,-418 -115,-94 -181,-158 -250,-241 -137,-164 -242,-315 -294,-425 -25,-53 -50,-104 -55,-113 -4,-9 -27,-76 -50,-150 -73,-237 -110,-509 -110,-809 0,-223 8,-307 46,-503 33,-175 40,-198 185,-577 104,-270 212,-483 360,-703 76,-114 281,-366 399,-490 214,-226 548,-474 845,-628 380,-196 625,-278 950,-315 224,-25 831,-26 1010,-1 197,28 413,81 640,157 323,109 586,252 780,424 115,102 315,316 394,421 37,50 89,119 115,155 78,105 228,443 279,630 88,318 140,972 103,1295 -17,148 -44,310 -70,410 -8,33 -27,112 -42,175 -77,333 -206,641 -396,949 -148,240 -142,232 -371,513 -82,102 -328,366 -399,429 -35,30 -99,79 -143,109 -44,29 -126,86 -183,127 -288,207 -494,298 -877,387 -242,56 -347,69 -560,68 -432,-1 -830,-93 -1063,-244 -34,-22 -64,-39 -66,-37 -2,2 -14,39 -26,83 -12,43 -44,137 -72,210 -68,179 -129,366 -122,377 3,5 10,7 15,4 17,-11 9,14 -9,27 -23,17 -52,63 -52,82 0,9 -7,32 -16,53 -41,95 -45,110 -28,117 10,4 14,17 12,41 -1,19 -5,34 -8,34 -3,-1 -27,-6 -55,-11 z"
         id="path14887"
         style="fill:#00002b" />
      <path
         d="m 3420,6728 c -13,-23 -35,-41 -63,-53 -23,-9 -50,-21 -59,-26 -10,-5 -28,-9 -40,-9 -29,0 -84,-33 -97,-59 -12,-21 -9,-30 34,-111 13,-25 24,-58 24,-73 1,-15 8,-30 16,-34 9,-3 22,-17 29,-32 13,-25 56,-171 56,-190 0,-5 -71,-11 -157,-14 -437,-15 -728,-50 -948,-114 -175,-50 -529,-204 -649,-281 C 1384,5615 1204,5474 1060,5335 735,5024 491,4607 310,4055 103,3424 105,2862 315,2235 c 64,-193 239,-522 360,-680 133,-173 345,-392 586,-604 377,-332 726,-509 1189,-601 202,-40 308,-50 547,-50 463,0 898,64 1278,187 348,113 806,412 1131,739 280,280 506,604 651,929 85,191 95,219 133,367 72,277 92,429 93,698 1,225 0,242 -31,410 -38,204 -98,441 -141,557 -43,117 -109,271 -137,318 -13,23 -43,86 -67,140 -90,204 -203,423 -271,525 -124,187 -413,453 -621,572 -38,22 -110,64 -160,93 -117,68 -257,124 -436,175 -238,68 -302,79 -551,97 l -238,17 -10,31 c -12,38 -15,94 -7,121 5,14 1,29 -12,45 -16,21 -19,48 -24,222 -2,109 -6,200 -8,202 -2,2 -32,7 -66,10 l -62,7 z"
         id="path14889"
         style="fill:#00002b" />
    </g>
  </g>
</svg>
