<?xml version="1.0" encoding="UTF-8" standalone="no"?>
<svg
   version="1.0"
   width="32pt"
   height="37pt"
   viewBox="0 0 32 37"
   preserveAspectRatio="xMidYMid meet"
   id="svg8"
   sodipodi:docname="apple.svg"
   inkscape:version="1.1.1 (3bf5ae0d25, 2021-09-20)"
   inkscape:label="Folha"
   xmlns:inkscape="http://www.inkscape.org/namespaces/inkscape"
   xmlns:sodipodi="http://sodipodi.sourceforge.net/DTD/sodipodi-0.dtd"
   xmlns:xlink="http://www.w3.org/1999/xlink"
   xmlns="http://www.w3.org/2000/svg"
   xmlns:svg="http://www.w3.org/2000/svg">
  <defs
     id="defs12">
    <linearGradient
       inkscape:collect="always"
       id="linearGradient3468">
      <stop
         style="stop-color:#ff3300;stop-opacity:1;"
         offset="0"
         id="stop3464" />
      <stop
         style="stop-color:#ff3300;stop-opacity:0;"
         offset="1"
         id="stop3466" />
    </linearGradient>
    <radialGradient
       inkscape:collect="always"
       xlink:href="#linearGradient3468"
       id="radialGradient3470"
       cx="-15.86531"
       cy="-20.153631"
       fx="-15.86531"
       fy="-20.153631"
       r="1.4030527"
       gradientTransform="matrix(1.5465399,1.4913829,-0.34443803,4.7131152,1.7293483,99.19339)"
       gradientUnits="userSpaceOnUse" />
    <radialGradient
       inkscape:collect="always"
       xlink:href="#linearGradient3468"
       id="radialGradient3618"
       gradientUnits="userSpaceOnUse"
       gradientTransform="matrix(2.0454598,-0.23333477,0.14252495,2.3335349,-11.569934,57.447379)"
       cx="-15.86531"
       cy="-20.153631"
       fx="-15.86531"
       fy="-20.153631"
       r="1.4030527" />
  </defs>
  <sodipodi:namedview
     id="namedview10"
     pagecolor="#505050"
     bordercolor="#eeeeee"
     borderopacity="1"
     inkscape:pageshadow="0"
     inkscape:pageopacity="0"
     inkscape:pagecheckerboard="0"
     inkscape:document-units="pt"
     showgrid="false"
     width="32pt"
     inkscape:zoom="12.946247"
     inkscape:cx="21.31892"
     inkscape:cy="24.678967"
     inkscape:window-width="1440"
     inkscape:window-height="847"
     inkscape:window-x="-8"
     inkscape:window-y="-8"
     inkscape:window-maximized="1"
     inkscape:current-layer="svg8"
     inkscape:object-nodes="false" />
  <metadata
     id="metadata2">
Created by potrace 1.15, written by Peter Selinger 2001-2017
</metadata>
  <g
     id="g9287"
     sodipodi:insensitive="true">
    <g
       id="g8234"
       style="display:inline;opacity:1"
       sodipodi:insensitive="true">
      <g
         transform="matrix(0.00359989,0,0,-0.00359989,-3.4558944,43.05124)"
         fill="#000000"
         stroke="none"
         id="g6"
         inkscape:label="Maça"
         style="display:inline">
        <path
           d="m 3110,11940 c -844,-73 -1578,-408 -1936,-883 -145,-193 -214,-384 -214,-596 0,-191 43,-334 149,-498 291,-449 949,-754 1765,-816 l 159,-12 -84,-65 c -183,-141 -350,-297 -503,-470 -457,-517 -721,-1099 -812,-1790 -17,-133 -31,-722 -16,-685 6,12 11,-20 15,-95 31,-536 175,-1141 391,-1645 26,-60 49,-118 51,-127 12,-60 188,-382 312,-573 83,-126 206,-292 309,-415 90,-108 434,-464 449,-465 6,-1 9,-6 8,-12 -1,-6 81,-98 183,-205 223,-231 294,-310 362,-403 28,-38 57,-77 64,-85 7,-9 22,-32 33,-53 11,-20 23,-37 27,-37 4,0 5,-6 2,-13 -5,-13 51,-77 68,-77 6,0 23,-11 39,-24 62,-52 341,-141 519,-166 47,-6 99,-14 115,-17 17,-3 248,-8 515,-10 1456,-11 1711,-11 1790,-2 116,13 291,46 370,68 36,10 109,31 163,46 126,34 198,67 225,104 12,17 22,34 22,40 0,5 6,11 13,14 7,2 13,16 15,30 2,31 51,137 62,137 5,0 12,9 15,20 4,11 39,60 78,108 72,88 89,107 305,335 67,71 120,134 119,140 -1,6 3,11 8,12 17,0 365,352 465,470 649,761 1031,1707 1111,2755 17,228 6,790 -20,1040 -130,1209 -589,1963 -1454,2389 -253,124 -509,212 -802,277 -109,24 -133,26 -270,21 -173,-7 -289,-25 -430,-68 -122,-38 -168,-57 -396,-165 -168,-79 -311,-134 -387,-148 l -34,-6 7,63 c 25,227 94,537 166,743 52,151 161,378 235,491 206,317 462,536 749,643 53,20 75,34 93,60 73,107 -72,307 -236,327 -43,5 -59,-1 -177,-57 -72,-34 -168,-87 -214,-117 -173,-116 -371,-336 -489,-546 -43,-76 -59,-96 -80,-100 -15,-3 -147,-22 -294,-43 l -267,-37 -163,159 c -583,568 -1189,917 -1762,1014 -140,24 -360,32 -506,20 z m 2930,-1313 c 0,-2 -11,-30 -24,-63 -104,-255 -192,-714 -222,-1156 l -6,-98 h -35 c -122,0 -309,68 -578,211 -198,105 -324,164 -412,193 l -52,17 72,62 c 257,219 491,468 707,752 l 53,70 81,6 c 91,6 416,11 416,6 z"
           id="path4" />
      </g>
    </g>
    <g
       id="g4082"
       sodipodi:insensitive="true"
       style="display:inline">
      <path
         id="path2872"
         style="opacity:0.619718;fill:#ff3300;fill-rule:evenodd;stroke-width:0;stroke-linejoin:round;paint-order:stroke fill markers"
         transform="rotate(90)"
         d="m 36.136245,-10.520475 c 0,0 -9.514787,10.46126308 -18.503113,8.0717066 -7.372658,-1.9600291 -9.6901399,-7.5008423 -9.574909,-10.9954356 1.0619787,-3.56537 2.416784,-2.047247 0.045232,-8.702827 0.6718204,-5.228799 3.116906,-8.623992 8.072336,-9.487813 11.368972,-2.843123 17.620367,7.009106 20.700378,7.924361"
         sodipodi:nodetypes="cccccc" />
      <g
         id="g4076">
        <ellipse
           style="opacity:0.36;fill:url(#radialGradient3470);fill-opacity:1;fill-rule:evenodd;stroke-width:0;stroke-linejoin:round;paint-order:stroke fill markers"
           id="path3280"
           cx="-14.787761"
           cy="-20.505444"
           rx="1.4030527"
           ry="4.1922421"
           transform="matrix(-0.97929169,0.20245442,-0.64562651,-0.76365333,0,0)" />
        <ellipse
           style="opacity:0.36;fill:url(#radialGradient3618);fill-opacity:1;fill-rule:evenodd;stroke-width:0;stroke-linejoin:round;paint-order:stroke fill markers"
           id="ellipse3616"
           cx="-45.649223"
           cy="12.444603"
           rx="1.6210327"
           ry="6.6820164"
           transform="matrix(-0.6431717,-0.76572199,-0.99996673,-0.00815749,0,0)" />
      </g>
    </g>
    <g
       id="g8075"
       sodipodi:insensitive="true"
       style="display:inline">
      <path
         id="rect4150"
         style="fill:#28170b;fill-rule:evenodd;stroke-width:0;stroke-linejoin:round;paint-order:stroke fill markers"
         d="m 22.016722,1.0673724 c 0.476275,-0.11478682 1.221135,1.1648051 0.674642,1.3518121 -4.136579,1.4155152 -4.362666,7.1664784 -4.362666,7.1664784 l -0.96139,0.020482 c 0,0 -0.02174,-7.4129796 4.649414,-8.5387725 z"
         sodipodi:nodetypes="ssccs" />
      <path
         id="rect5599"
         style="fill:#28170b;fill-rule:evenodd;stroke-width:0;stroke-linejoin:round;paint-order:stroke fill markers"
         d="m 16.385601,4.3831483 2.314466,-0.348194 -0.389158,0.7987981 h -1.863862 z"
         sodipodi:nodetypes="ccccc" />
      <path
         id="rect6346"
         style="opacity:1;fill:#002b00;fill-rule:evenodd;stroke-width:0;stroke-linejoin:round;paint-order:stroke fill markers"
         d="M 0.57349602,3.4819402 C 4.7398932,-1.1830138 11.509535,-1.1305505 16.508493,4.3421843 c 0.133849,0.146534 0.16016,0.4352961 0.04096,0.5939779 C 11.605191,11.518311 3.8231649,11.270009 0.63493802,7.2915924 -0.1551076,5.8804967 -0.24699631,5.164091 0.57349602,3.4819402 Z"
         sodipodi:nodetypes="csscc" />
      <g
         id="g9263">
        <path
           style="fill:none;stroke:#000000;stroke-width:0.508449px;stroke-linecap:butt;stroke-linejoin:miter;stroke-opacity:1"
           d="m 3.398206,4.9612665 c 0.1745243,-0.025139 0.3219757,-0.078362 0.4978435,-0.1022414 0.1349676,-0.018327 0.276738,-0.024436 0.4148694,-0.037178 0.3083112,-0.028442 0.3603502,-0.03906 0.7052782,-0.055768 0.5303125,-0.025689 0.1738214,-0.0015 0.5393304,-0.00929 0.2982689,-0.00637 0.5964723,-0.017919 0.8919695,-0.037179 0.9260402,-0.060354 0.083513,-0.038798 0.9334566,-0.065063 0.1793508,-0.00554 0.3595537,0 0.5393305,0 0.062231,0 0.1248027,0.00291 0.1866914,0 0.070124,-0.00331 0.137783,-0.013661 0.2074345,-0.018589 0.1169092,-0.00827 0.2350928,-0.012393 0.3526394,-0.01859 0.1175463,-0.0062 0.2344296,-0.015941 0.3526392,-0.018589 0.3862111,-0.00865 0.7754801,0.00911 1.1616344,0 0.367957,-0.00868 0.730671,-0.041467 1.099405,-0.046473 0.385771,-0.00524 0.775629,0 1.161634,0 0.601561,0 1.203122,0 1.804683,0 0.539329,0 1.07866,0 1.61799,0 0.05532,0 0.110754,-0.00165 0.165949,0 0.227663,0.0068 0.06614,0.00649 0.228177,0.018589 0.03161,0.00236 0.07116,0 0.103718,0 0.01384,0 0.02766,0 0.04149,0 0.0068,0 0.02073,0.0031 0.02073,0 0,-0.0031 -0.02766,0 -0.02073,0 0.01384,0 0.02836,0.00196 0.04149,0 0.0093,-0.00139 0.01199,-0.00734 0.02073,-0.00929 0.0061,-0.00138 0.01456,0.00138 0.02073,0 0.01749,-0.00392 0.02766,-0.012393 0.04149,-0.018589"
           id="path7874" />
        <path
           style="fill:none;stroke:#000000;stroke-width:0.704556px;stroke-linecap:butt;stroke-linejoin:miter;stroke-opacity:1"
           d="M 10.114657,4.5730666 C 9.9090836,4.462282 9.6958162,4.3398163 9.4693003,4.2501199 9.3130782,4.188259 9.101835,4.1829618 8.9391864,4.1532358 8.8161649,4.1808432 8.7725746,4.095335 8.6856535,4.0724992 8.5246883,4.0302105 8.3042354,4.043298 8.1324915,4.0079099 c -0.049445,-0.010188 -0.091195,-0.033778 -0.13829,-0.048442 -0.038097,-0.011862 -0.092195,-0.021935 -0.092195,-0.016147 0,0.00538 0.029915,0.00241 0.023047,0 -0.021733,-0.00761 -0.045093,-0.01374 -0.069141,-0.016147 -0.030421,-0.00305 -0.0617,0.00267 -0.092194,0 -0.031435,-0.00275 -0.061135,-0.011796 -0.092196,-0.016148 -0.045825,-0.00643 -0.09267,-0.00904 -0.1382906,-0.016147 C 7.4857994,3.8874939 7.4427488,3.8686733 7.3949422,3.8625838 7.2170313,3.8399217 7.0664916,3.8302891 6.8878769,3.8302891"
           id="path8144" />
        <path
           style="fill:none;stroke:#000000;stroke-width:0.741292px;stroke-linecap:butt;stroke-linejoin:miter;stroke-opacity:1"
           d="m 13.095639,4.5076109 c -0.617586,-0.8639558 5.04e-4,0.023419 -0.509663,-0.7695668 -0.06752,-0.1049514 -0.209463,-0.3365367 -0.32764,-0.4300522 -0.02757,-0.021814 -0.06179,-0.027098 -0.09101,-0.045268 -0.01734,-0.010779 -0.09292,-0.1010137 -0.109214,-0.1131717 -0.01645,-0.012276 -0.03665,-0.014257 -0.0546,-0.022635 -0.127297,-0.05936 -0.248688,-0.1215338 -0.382247,-0.1584403 -0.01184,-0.00328 -0.02488,0.00477 -0.0364,0 -0.0079,-0.00326 -0.04601,-0.039929 -0.0546,-0.045268 -0.01085,-0.00675 -0.0263,0.00837 -0.03641,0 -0.06105,-0.050605 -0.01206,-0.045268 -0.0546,-0.045268"
           id="path8146" />
        <path
           style="fill:none;stroke:#000000;stroke-width:0.75px;stroke-linecap:butt;stroke-linejoin:miter;stroke-opacity:1"
           d="M 10.329642,4.497399 C 10.191914,4.7039914 10.261565,4.6169705 10.001065,4.8670482 9.9137006,4.9509184 9.8295311,5.0389224 9.7340966,5.113481 9.3450664,5.4174104 9.4647844,5.3090453 9.1796224,5.4625942 c -0.035145,0.018924 -0.066345,0.045091 -0.1026803,0.061608 -0.039413,0.017915 -0.083183,0.024588 -0.123216,0.041072 -0.076483,0.031493 -0.149547,0.070867 -0.225897,0.1026803 -0.088011,0.036671 -0.1776949,0.069203 -0.266969,0.1026804 -0.020269,0.0076 -0.042247,0.010855 -0.061608,0.020536 C 8.3289006,5.8263466 8.1254532,5.9376508 8.070675,5.9759955 8.046883,5.9926495 8.031117,6.0187035 8.009067,6.0376035 7.8067222,6.2110418 8.02784,6.0102625 7.8653145,6.1402838 c -0.050082,0.040066 -0.066358,0.095322 -0.1026804,0.1437525 -0.02677,0.035693 -0.079745,0.064455 -0.1026803,0.1026803 -0.011137,0.018562 -0.012496,0.04151 -0.020536,0.061608 -0.031746,0.079364 -0.078239,0.153933 -0.1232165,0.2258967 -0.021154,0.033848 -0.043758,0.06698 -0.061608,0.1026804 -0.00306,0.00612 0.00484,0.015695 0,0.020536 -0.010823,0.010823 -0.030249,0.00971 -0.041072,0.020536 -0.00484,0.00484 0.00306,0.014413 0,0.020536 -0.046743,0.046743 -0.00543,-0.00425 -0.020536,0.041072 -0.041027,0.1230813 0.00526,-0.051581 -0.061608,0.082144 -0.00612,0.012245 0.00433,0.028084 0,0.041072 -0.00306,0.00918 -0.016207,0.011877 -0.020536,0.020536 -0.00306,0.00612 0.00306,0.014413 0,0.020536 -0.00433,0.00866 -0.016207,0.011877 -0.020537,0.020536 -0.00968,0.019362 -0.010855,0.042247 -0.020536,0.061608 -0.00433,0.00866 -0.018638,0.011043 -0.020536,0.020536 -0.00537,0.02685 0.00387,0.055035 0,0.082145 -0.024866,0.1740585 -0.020536,-0.022943 -0.020536,0.1026803 0,0.025073 0.011577,0.079527 0,0.1026802 -0.00433,0.00866 -0.016207,0.01188 -0.020536,0.020535 -0.00612,0.012247 0.012245,0.03495 0,0.04107 -0.012245,0.00615 -0.028827,-0.00615 -0.041072,0 -0.00612,0.00307 0.00306,0.014415 0,0.020535 -0.00433,0.00866 -0.011877,0.016208 -0.020536,0.020535 -0.00612,0.00307 -0.014042,-0.00218 -0.020536,0 -0.014521,0.00487 -0.027382,0.013687 -0.041072,0.020535 -0.027382,0.00683 -0.054763,0.013687 -0.082144,0.020535"
           id="path8148" />
      </g>
    </g>
  </g>
</svg>
